<?xml version="1.0" encoding="utf-8"?>
<!-- Generator: Adobe Illustrator 22.1.0, SVG Export Plug-In . SVG Version: 6.00 Build 0)  -->
<svg version="1.1" id="DESIGN" xmlns="http://www.w3.org/2000/svg" xmlns:xlink="http://www.w3.org/1999/xlink" x="0px" y="0px"
	 viewBox="0 0 366.3 193.8" style="enable-background:new 0 0 366.3 193.8;" xml:space="preserve">
<style type="text/css">
	.st0{fill:url(#SVGID_1_);}
	.st1{fill:url(#SVGID_2_);}
	.st2{fill:#FFFFFF;}
	.st3{fill:url(#SVGID_3_);}
</style>
<g>
	<g>
		
			<linearGradient id="SVGID_1_" gradientUnits="userSpaceOnUse" x1="66.9223" y1="-311.9009" x2="342.1016" y2="-126.2902" gradientTransform="matrix(0.9999 -6.586298e-04 6.586298e-04 0.9999 -40.5175 317.1054)">
			<stop  offset="0" style="stop-color:#FFFFFF"/>
			<stop  offset="0" style="stop-color:#BFBFBF"/>
			<stop  offset="0" style="stop-color:#858585"/>
			<stop  offset="6.060610e-02" style="stop-color:#BABABA"/>
			<stop  offset="0.1032" style="stop-color:#FFFFFF"/>
			<stop  offset="0.1984" style="stop-color:#F0F0F0"/>
			<stop  offset="0.2424" style="stop-color:#C8C8C8"/>
			<stop  offset="0.3394" style="stop-color:#666666"/>
			<stop  offset="0.4727" style="stop-color:#696969"/>
			<stop  offset="0.6217" style="stop-color:#DEDEDE"/>
			<stop  offset="0.6614" style="stop-color:#F2F2F2"/>
			<stop  offset="0.7593" style="stop-color:#D9D9D9"/>
			<stop  offset="0.8651" style="stop-color:#646464"/>
			<stop  offset="0.9048" style="stop-color:#F2F2F2"/>
			<stop  offset="0.9365" style="stop-color:#DCDCDC"/>
			<stop  offset="1" style="stop-color:#545454"/>
		</linearGradient>
		<path class="st0" d="M346.7,43.4c-5.7-2.7-42.6-18.3-71.5-27.3c-32-10-60.6-14.8-89.4-15.8c0,0-8.2-0.3-12.5-0.3l0,0l0,0
			c0,0,0,0,0,0l0,0l0,0c-4.3,0-12.5,0.3-12.5,0.3c-28.8,1.1-57.4,5.8-89.3,15.9C42.5,25.3,4.8,41.7,0,44.1c1,12.1,8,121.6,8,121.6
			s-0.6,8.8,9.5,8.8c10.1,0,66.3-0.1,66.3-0.1s0,3.3,0,7.8c0,4.5,3,11.6,12.9,11.6c6,0,39.7,0,63.9,0c0,0,5.1,0,12.8,0
			c0,0,0,0,0.1,0c7.8,0,12.8,0,12.8,0c24.1,0,57.8,0,63.9,0c9.8,0,12.8-6.7,12.8-11.6c0-4.9,0-7.8,0-7.8s10.6-0.2,23.4,0
			c8.2,0.1,10.6-2.3,14.5-5.5c8.3-7,23.8-20.1,23.8-20.1s9.5-8.3,13.4-12.5c2-2.1,2.9-6.5,3-8.6C343.2,94.4,346.1,50.8,346.7,43.4z"
			/>
		
			<linearGradient id="SVGID_2_" gradientUnits="userSpaceOnUse" x1="-106.9152" y1="124.1498" x2="242.0945" y2="124.1498" gradientTransform="matrix(0.9653 0.261 -0.261 0.9653 134.6109 -36.4059)">
			<stop  offset="2.424240e-02" style="stop-color:#006E35"/>
			<stop  offset="0.3091" style="stop-color:#002E0F"/>
			<stop  offset="0.7212" style="stop-color:#006E35"/>
			<stop  offset="1" style="stop-color:#002E0F"/>
		</linearGradient>
		<path class="st1" d="M346.2,49.5c-3.9-2.9-42.1-21.3-71-30.4c-32-10-60.6-14.8-89.3-15.8c0,0-8.1-0.3-12.5-0.3l0,0l0,0l0,0l0,0
			c0,0,0,0,0,0l0,0c-4.4,0-12.5,0.3-12.5,0.3c-28.8,1.1-57.4,5.8-89.3,15.9c-28.9,9.1-67,27.5-71,30.5c1,12.1,7.6,113,7.6,113
			s-0.3,8.8,9.5,8.8c10.1,0,70.3-0.1,70.3-0.1l0,9.8c0,0,0,7.5,9.8,7.5c6.1,0,38.7,0,62.9,0c0,0,5.1,0,12.8,0l0,0c0,0,0,0,0,0l0,0
			c7.7,0,12.8,0,12.8,0c24.2,0,56.8,0,62.9,0c9.8,0,9.8-7.5,9.8-7.5l0-9.8c0,0,19,0,35.5,0c5.2-3,9.3-7,14.1-11
			c10.4-10.1,19.4-17,19.4-17s8.7-6.4,13.1-15.4C343,97.4,345.6,56.9,346.2,49.5z"/>
		<path d="M41.4,56l23.1,0c0,0,4.2,2.4,4.2,7.4c0,5,0,47.8,0,47.8s0.5,20.8-3.5,30.2c-3.3,7.8-8,12.7-15.5,15.1
			c-8.8,2.8-17.2,2.2-21.1-1c-4.4-3.6-4.8-10.3-4.8-10.3s3.9,0.9,8.6-0.5c3.4-1,8-4.1,10.8-12.4c2.9-8.3,2.3-15.8,2.2-20.8
			c0-5,0-43,0-43s0.3-5.4-0.6-7.4C44,59.2,41.4,56,41.4,56z"/>
		<path d="M201.4,60.3c0.3-0.1,1.2,14.5-4.3,16.8c-9.1,0-25.2,0-25.2,0l0,20.6l13.5,0c0,0,9.6-0.2,13-1.7c-0.7,6.4-1.8,9.7-4.1,11.7
			c-2.3,2-6.1,3.6-9.7,3.7c-3.7,0-12.8,0-12.8,0l0,21.8c0,0,0.3,9.3,2.1,12.6c-8,0-18.2,0-18.2,0s-5.6,0.3-5.6-5.3
			c0-5.6,0-71.5,0-71.5s-1.2-8,6.8-8c8,0,36.4,0,36.4,0S199,60.8,201.4,60.3z"/>
		<path d="M257.5,60.2c0.3-0.1,1.2,14.5-4.3,16.8c-9.1,0-25.2,0-25.2,0l0,20.6l13.5,0c0,0,9.6-0.2,13-1.7c-0.8,6.4-1.8,9.7-4.1,11.7
			c-2.3,2-6.1,3.6-9.7,3.6c-3.6,0-12.8,0-12.8,0l0,21.9c0,0,0.3,9.3,2.1,12.6c-8,0-18.2,0-18.2,0s-5.6,0.3-5.6-5.3
			c0-5.6,0-71.5,0-71.5s-1.2-8,6.8-8c8,0,36.4,0,36.4,0S255.1,60.8,257.5,60.2z"/>
		<path d="M117.9,65.8c-0.6-2.7-2.7-3.9-2.7-3.9l-20.4,0c0,0,0.9,0.8,2.4,2.6c1.7,2.1-0.1,6-0.1,6s-4.8,12.7-8.1,22.2
			c-3.3,9.5-12.8,33.6-15.2,43.3c-2.4,9.7,3.8,10.1,3.8,10.1s2.2,0.1,15.1-0.1c-4.5-4.5,1.1-22.1,1.1-22.1l22,0
			c0,0,1.1,5.3,4.5,13.7c3.5,8.4,9.5,8.7,12.8,8.9c3.3,0.1,6,0.1,12.7-1.5C137.7,134.5,118.5,68.5,117.9,65.8z M97.5,111.5
			c0,0,4.3-14.1,8-25.1c1.5,7.8,6.5,25.1,6.5,25.1L97.5,111.5z"/>
		<path d="M296.9,60.5c-0.6-2.9-2.8-4.2-2.8-4.2l-20.8,0c0,0,1,0.8,2.5,2.7c1.8,2.2-0.1,6.4-0.1,6.4s-4.9,13.5-8.3,23.6
			c-3.4,10.1-13,35.8-15.5,46.1c-2.5,10.3,3.9,10.7,3.9,10.7s2.3,0.1,15.4-0.1c-4.6-4.8,1.2-23.5,1.2-23.5l22.5,0
			c0,0,1.1,5.6,4.6,14.6c3.5,9,9.7,9.3,13.1,9.5c3.4,0.2,6.2,0.2,12.9-1.6C317.1,133.6,297.5,63.4,296.9,60.5z M276.1,109.1
			c0,0,4.3-15,8.2-26.8c1.6,8.3,6.7,26.7,6.7,26.7L276.1,109.1z"/>
		<path class="st2" d="M39.4,54.6l23.1,0c0,0,4.2,2.4,4.2,7.4c0,5,0,47.8,0,47.8s0.5,20.7-3.4,30.1c-3.3,7.8-8,12.7-15.5,15.1
			c-8.8,2.8-17.2,2.2-21.1-1c-4.4-3.6-4.8-10.2-4.8-10.2s3.9,0.9,8.6-0.5c3.4-1,8-4.1,10.8-12.4c2.9-8.3,2.3-15.8,2.2-20.8
			c0-5,0-43,0-43s0.3-5.4-0.6-7.4C42,57.8,39.4,54.6,39.4,54.6z"/>
		<path class="st2" d="M199.4,58.9c0.3-0.1,1.2,14.5-4.3,16.8c-9.1,0-25.2,0-25.2,0l0,20.6l13.5,0c0,0,9.6-0.2,13.1-1.7
			c-0.8,6.4-1.8,9.7-4.1,11.7c-2.3,2-6.1,3.6-9.7,3.6c-3.6,0-12.7,0-12.7,0l0,21.8c0,0,0.3,9.3,2.1,12.6c-8.1,0-18.2,0-18.2,0
			s-5.6,0.3-5.6-5.3c0-5.6,0-71.5,0-71.5s-1.2-8,6.8-8c8,0,36.4,0,36.4,0S197.1,59.5,199.4,58.9z"/>
		<path class="st2" d="M255.5,58.9c0.3-0.1,1.2,14.5-4.3,16.8c-9.1,0-25.2,0-25.2,0l0,20.6l13.5,0c0,0,9.6-0.2,13-1.7
			c-0.8,6.4-1.8,9.7-4.1,11.7c-2.3,2-6.1,3.6-9.7,3.6c-3.6,0-12.7,0-12.7,0l0,21.9c0,0,0.3,9.3,2.1,12.6c-8,0-18.2,0-18.2,0
			s-5.6,0.3-5.6-5.3c0-5.6-0.1-71.5-0.1-71.5s-1.2-8,6.8-8c8,0,36.4,0,36.4,0S253.1,59.4,255.5,58.9z"/>
		<path class="st2" d="M115.9,64.4c-0.6-2.7-2.7-3.9-2.7-3.9l-20.3,0c0,0,0.9,0.8,2.4,2.6c1.7,2.1-0.2,6-0.2,6s-4.8,12.7-8.1,22.2
			c-3.3,9.5-12.8,33.6-15.2,43.3c-2.4,9.7,3.8,10.1,3.8,10.1s2.2,0.1,15.1,0c-4.5-4.5,1.1-22.1,1.1-22.1l22,0c0,0,1.1,5.3,4.5,13.7
			c3.5,8.4,9.5,8.7,12.8,8.9c3.3,0.1,6,0.2,12.7-1.5C135.7,133.1,116.5,67.1,115.9,64.4z M95.5,110.1c0,0,4.3-14.1,8-25.1
			c1.5,7.8,6.5,25.1,6.5,25.1L95.5,110.1z"/>
		<path class="st2" d="M294.9,59.1c-0.6-2.9-2.8-4.2-2.8-4.2l-20.8,0c0,0,1,0.8,2.5,2.7c1.8,2.2-0.1,6.4-0.1,6.4s-4.9,13.5-8.3,23.6
			c-3.4,10.1-13.1,35.8-15.5,46.1c-2.5,10.3,3.9,10.7,3.9,10.7s2.3,0.1,15.4-0.1c-4.6-4.8,1.2-23.5,1.2-23.5l22.5,0
			c0,0,1.1,5.6,4.6,14.6c3.6,9,9.7,9.3,13.1,9.5c3.4,0.2,6.2,0.2,12.9-1.6C315.1,132.2,295.5,62,294.9,59.1z M274.2,107.8
			c0,0,4.3-15,8.2-26.7c1.6,8.3,6.7,26.7,6.7,26.7L274.2,107.8z"/>
		<g>
			<path d="M131.2,181.9c-2.6-0.8-4.8-1.6-7.1-2.6c-0.4-0.2-0.8-0.3-1.2-0.3c-4.2-0.2-8-3.6-8-10.1c0-6.2,3.5-10.5,8.7-10.5
				c5.3,0,8.4,4.4,8.5,10.1c0,4.8-2,8-4.7,9.2l0,0.1c1.6,0.5,3.3,0.9,4.8,1.2L131.2,181.9z M128.5,168.7c0-3.8-1.7-7.3-5-7.3
				c-3.3,0-5.1,3.5-5.1,7.4c0,4,1.9,7.3,5.1,7.3C126.6,176.1,128.5,172.9,128.5,168.7z"/>
		</g>
		<g>
			<path d="M140.4,160.7l0,10.5c0,3.5,1.3,5.2,3.4,5.2c2.2,0,3.5-1.6,3.5-5.2l0-10.5l3,0l0,10.3c0,5.6-2.6,8-6.6,8
				c-3.8,0-6.3-2.3-6.3-8l0-10.3L140.4,160.7z"/>
			<path d="M159.6,173.6l-1.4,5.1l-3.1,0l5.3-18l3.9,0l5.4,18l-3.3,0l-1.5-5.1L159.6,173.6z M164.3,171.1l-1.3-4.4
				c-0.3-1.1-0.6-2.3-0.8-3.4l-0.1,0c-0.2,1-0.5,2.3-0.8,3.4l-1.3,4.4L164.3,171.1z"/>
			<path d="M174.3,160.7l3,0l0,15.3l6.8,0l0,2.8l-9.8,0L174.3,160.7z"/>
			<path d="M191.9,160.7l0,18l-3,0l0-18L191.9,160.7z"/>
			<path d="M201,163.4l-4.7,0l0-2.8l12.5,0l0,2.7l-4.8,0l0,15.3l-3,0L201,163.4z"/>
		</g>
		<g>
			<path d="M217.6,178.7l0-8.3l-5.8-11.6l3.8,0l2.2,5.1c0.6,1.5,1.1,2.6,1.6,4l0.1,0c0.4-1.3,0.9-2.5,1.6-4l2.2-5.1l3.8,0l-6.1,11.5
				l0,8.4L217.6,178.7z"/>
		</g>
		<g>
			<path class="st2" d="M130.2,180.9c-2.6-0.8-4.8-1.6-7.1-2.6c-0.4-0.2-0.8-0.3-1.2-0.3c-4.2-0.2-8-3.6-8-10.1
				c0-6.2,3.5-10.5,8.7-10.5c5.3,0,8.5,4.4,8.5,10.1c0,4.8-2,8-4.7,9.2l0,0.1c1.6,0.5,3.3,0.9,4.8,1.2L130.2,180.9z M127.5,167.7
				c0-3.8-1.7-7.3-5-7.3c-3.3,0-5.1,3.5-5.1,7.4c0,4,1.9,7.3,5.1,7.3C125.6,175.1,127.5,171.9,127.5,167.7z"/>
		</g>
		<g>
			<path class="st2" d="M139.4,159.7l0,10.5c0,3.5,1.4,5.2,3.4,5.2c2.2,0,3.5-1.6,3.5-5.2l0-10.5l3,0l0,10.3c0,5.6-2.6,8-6.6,8
				c-3.8,0-6.3-2.3-6.3-8l0-10.3L139.4,159.7z"/>
			<path class="st2" d="M158.5,172.6l-1.4,5.1l-3.1,0l5.3-18l3.9,0l5.4,18l-3.3,0l-1.5-5.1L158.5,172.6z M163.3,170.1l-1.3-4.4
				c-0.3-1.1-0.6-2.3-0.8-3.4l0,0c-0.2,1-0.5,2.3-0.8,3.4l-1.3,4.4L163.3,170.1z"/>
			<path class="st2" d="M173.3,159.7l3,0l0,15.3l6.8,0l0,2.7l-9.8,0L173.3,159.7z"/>
			<path class="st2" d="M190.9,159.7l0,18l-3,0l0-18L190.9,159.7z"/>
			<path class="st2" d="M200,162.4l-4.7,0l0-2.8l12.5,0l0,2.8l-4.8,0l0,15.3l-3,0L200,162.4z"/>
		</g>
		<g>
			<path class="st2" d="M216.5,177.7l0-8.3l-5.8-11.6l3.8,0l2.2,5.1c0.6,1.5,1.1,2.6,1.6,3.9l0.1,0c0.4-1.3,0.9-2.5,1.6-4l2.2-5.1
				l3.8,0l-6.1,11.5l0,8.4L216.5,177.7z"/>
		</g>
		
			<linearGradient id="SVGID_3_" gradientUnits="userSpaceOnUse" x1="345.9523" y1="-178.9827" x2="359.3033" y2="-163.0717" gradientTransform="matrix(0.9999 -6.586298e-04 6.586298e-04 0.9999 -40.5175 317.1054)">
			<stop  offset="0" style="stop-color:#FFFFFF"/>
			<stop  offset="0.3254" style="stop-color:#EBEBEB"/>
			<stop  offset="0.4735" style="stop-color:#E8E8E8"/>
			<stop  offset="0.9091" style="stop-color:#ABABAB"/>
			<stop  offset="1" style="stop-color:#A6A6A6"/>
		</linearGradient>
		<path class="st3" d="M289.3,174.3c2.1-0.3,2.9-0.6,5.3-1.8c6.2-3.1,9.3-11.3,11.6-16.9c1.7-4,2.6-13.5,3.7-19.7
			c1-6.2,8.7-4.5,11.6-4.2c2.9,0.3,9.5,2.9,14.6,1c5-1.8,5.4-9.4,5.4-9.4s0.8,9.5-4.2,14.1c-11.5,10.6-21.4,18.6-35.9,31
			C296.5,172.5,293.2,174.2,289.3,174.3C285.1,174.2,289.3,174.3,289.3,174.3z"/>
		<path class="st2" d="M271,41.5c0,1.3-1,2.3-2.3,2.3c-1.3,0-2.3-1-2.3-2.3c0-1.3,1-2.3,2.3-2.3C270,39.3,271,40.3,271,41.5z"/>
		<path class="st2" d="M78.2,41.7c0,1.3-1,2.3-2.3,2.3c-1.3,0-2.3-1-2.3-2.3c0-1.2,1-2.3,2.3-2.3C77.2,39.4,78.2,40.4,78.2,41.7z"/>
		<path d="M86.9,50.4c-0.1,0-0.1,0-0.2-0.2l-5-21.1c0-0.2,0-0.3,0.2-0.3c3.8-1,7.8-1.9,11.6-2.8c0.1,0,0.1,0,0.1,0
			c0.1,0,0.2,0,0.2,0.2l0.3,1.5c0,0.2,0,0.3-0.2,0.4c-2.7,0.6-5.3,1.2-8,1.9l-0.3,0.1l1.7,7.5l0.3-0.1c2.2-0.5,4.4-1,6.5-1.5
			c0.1,0,0.1,0,0.1,0c0.1,0,0.2,0,0.2,0.2l0.3,1.4c0,0.2,0,0.3-0.3,0.4c-2.2,0.5-4.3,1-6.5,1.5l-0.3,0.1l2.3,10c0,0.2,0,0.3-0.2,0.3
			c-1,0.2-1.9,0.5-2.9,0.7C87,50.3,86.9,50.4,86.9,50.4z"/>
		<path d="M100.9,47.1c-0.1,0-0.2,0-0.2-0.2c-1.4-7-2.7-13.9-4.1-20.9c0-0.1-0.1-0.3,0.3-0.5c1.1-0.6,3.1-1.2,5.8-1.7
			c1.2-0.2,2.3-0.4,3.3-0.4c3.7,0,5.9,1.7,6.4,4.9c0.2,1.4-0.1,2.8-1.1,4c-0.8,1-1.9,1.9-3.2,2.5l-0.2,0.1l0,0.2l0,0.1l0,0.2l0.2,0
			c1,0.3,2,1,2.9,2.2c1.5,2,3,4,4.5,6c0.2,0.3,0.2,0.4,0.2,0.4c0,0.2,0,0.3-0.2,0.3c-1,0.2-2,0.3-3,0.5c-0.1,0-0.1,0-0.2,0
			c-0.2,0-0.4-0.1-0.5-0.2c-1.5-2.1-3-4.2-4.5-6.2c-1-1.4-2.1-2-3.1-2c-0.2,0-0.3,0-0.5,0l-1.6,0.3l1.8,9.5c0,0.2,0,0.3-0.2,0.3
			c-0.9,0.2-1.9,0.4-2.8,0.6C100.9,47.1,100.9,47.1,100.9,47.1z M104.5,25.2c-0.5,0-1,0.1-1.5,0.1c-1,0.2-1.9,0.4-2.5,0.7l-0.2,0.1
			l1.7,9.2l0.3,0c0.5-0.1,1.1-0.1,1.8-0.3c1.8-0.3,3.1-1,3.9-2c0.8-1,1.2-2.3,0.9-3.7C108.4,26.6,106.9,25.2,104.5,25.2z"/>
		<path d="M124.5,43.2c-1.6,0-2.9-0.3-4.1-1c-1.7-1-2.8-2.6-3.1-4.9L115,22.1c0-0.1,0-0.3,0.3-0.3c1-0.2,2-0.3,3.1-0.5
			c0,0,0.1,0,0.1,0c0.1,0,0.2,0,0.2,0.2l2.1,15.2c0.2,1.4,0.8,2.5,1.8,3.2c0.8,0.6,1.7,0.8,2.8,0.8c0.3,0,0.6,0,0.9-0.1
			c1.4-0.2,2.5-0.8,3.3-1.7c0.8-1,1.1-2.2,0.9-3.6l-1.7-15.2c0-0.1,0-0.2,0.3-0.3c0.9-0.1,1.7-0.2,2.5-0.3c0,0,0,0,0.1,0
			c0.2,0,0.3,0,0.3,0.2l1.6,15.4c0.2,2.3-0.4,4.1-1.8,5.6c-1.3,1.3-3.1,2.1-5.5,2.4C125.7,43.2,125.1,43.2,124.5,43.2L124.5,43.2z"
			/>
		<path d="M138.2,41.2c-0.2,0-0.2,0-0.2-0.2l-2-21.7c0-0.2,0-0.3,0.3-0.3c1-0.1,2.1-0.2,3.1-0.3l0,0c0.2,0,0.3,0,0.3,0.2l1.8,21.7
			c0,0.2,0,0.3-0.3,0.3C140.2,41,139.3,41.1,138.2,41.2L138.2,41.2z"/>
		<path d="M149.5,40.3c-0.1,0-0.3,0-0.3-0.3l-1.3-19.8l-0.3,0c-1.8,0.1-3.5,0.3-5.3,0.4l0,0c-0.2,0-0.3,0-0.3-0.3l-0.1-1.5
			c0-0.2,0-0.3,0.3-0.3c5-0.4,10-0.7,14.9-0.9l0,0c0.3,0,0.3,0.1,0.3,0.2l0.1,1.5c0,0.2-0.1,0.3-0.3,0.3c-1.8,0.1-3.5,0.2-5.3,0.3
			l-0.3,0l1.1,19.9c0,0.3-0.1,0.3-0.3,0.4C151.5,40.2,150.5,40.2,149.5,40.3L149.5,40.3z"/>
		<path d="M172,39.9c-1.4,0-2.7-0.4-3.7-1.3c-1-0.9-1.5-1.9-1.5-3.2c0-1.4,0.5-2.7,1.5-3.8c0.8-0.8,2-1.7,3.6-2.6l0.3-0.2l-0.2-0.3
			c-1.7-1.9-2.6-3.5-2.6-4.8c0-1.3,0.5-2.4,1.6-3.2c1.1-0.8,2.5-1.2,4.2-1.2c1.8,0,3.2,0.4,4.1,1.1c0.9,0.7,1.4,1.7,1.4,2.8
			c0,1.1-0.5,2.1-1.5,3c-0.7,0.6-1.8,1.3-3.5,2.3l-0.3,0.2l0.3,0.3c1.1,1.2,2.2,2.4,3.3,3.6l0.2,0.3l0.2-0.3c1.8-2.3,3.4-3.4,5-3.4
			l0.1,0c0.6,0,1.1,0.2,1.3,0.4c0.2,0.2,0.2,0.4,0.2,0.8c0,0.7-0.4,1.1-1.2,1.1c0,0-0.3,0-0.4,0c-0.8,0-1.5,0.1-2,0.3
			c-0.7,0.3-1.5,0.9-2.3,1.8l-0.1,0.2L180,34c1.6,1.8,3.2,3.6,4.7,5.3c0,0,0.1,0.1,0.1,0.2c0,0.2,0,0.2-0.2,0.2
			c-0.8,0-1.6,0-2.4-0.1c-0.2,0-0.4-0.1-0.7-0.4c-0.9-1.1-1.9-2.2-2.8-3.2l-0.2-0.3l-0.2,0.3c-0.9,1.3-1.8,2.2-2.5,2.7
			C174.6,39.5,173.4,39.9,172,39.9L172,39.9z M172.9,30c-2.4,1.4-3.6,3-3.6,4.6c0,1,0.4,1.8,1,2.4c0.6,0.6,1.5,0.9,2.6,0.9
			c1.4,0,2.8-1,4.4-3.1l0.1-0.2l-0.2-0.2c-1.3-1.5-2.7-2.9-4-4.4l-0.2-0.2L172.9,30z M175,20.4c-0.9,0-1.7,0.3-2.3,0.8
			c-0.6,0.6-0.9,1.3-0.9,2.2c0,1.2,0.8,2.5,2.4,4.2l0.2,0.1l0.2-0.1c2.6-1.4,3.9-2.7,3.9-4.1c0-0.9-0.3-1.6-0.9-2.2
			C176.8,20.7,176,20.4,175,20.4L175,20.4z"/>
		<path d="M191.3,47.7c-1.2-0.1-1.2-0.6-1.2-0.8c0-0.3,0.3-0.5,0.8-0.6c3.1-1,4.8-4,5.1-8.7l1.2-19.3c0-0.2,0.1-0.2,0.3-0.2
			c1.1,0.1,2.1,0.1,3.2,0.2c0.3,0,0.3,0.1,0.3,0.3l-1.3,18.6c-0.3,3.8-1.5,6.7-3.7,8.6c-1.5,1.3-2.9,1.9-4.3,1.9
			C191.5,47.7,191.4,47.7,191.3,47.7z"/>
		<path d="M212.6,42.2c-0.5,0-1,0-1.5-0.1c-2.4-0.3-4.2-1-5.5-2.3c-1.5-1.4-2.1-3.2-1.9-5.5l1.2-15.4c0-0.2,0.1-0.2,0.3-0.2
			c1.1,0.1,2.1,0.2,3.2,0.3c0.3,0,0.3,0.1,0.3,0.3l-1.4,15.2c-0.1,1.5,0.2,2.7,1,3.6c0.8,0.9,1.9,1.5,3.3,1.6c0.3,0,0.5,0,0.7,0
			c1.1,0,2-0.3,2.8-0.9c1-0.7,1.6-1.8,1.7-3.3l1.8-15.2c0-0.2,0.1-0.2,0.3-0.2c0,0,0.1,0,0.1,0c0.9,0.1,1.7,0.2,2.6,0.3
			c0.3,0,0.3,0.1,0.3,0.3l-1.9,15.3c-0.3,2.3-1.3,3.9-3,5C215.7,41.8,214.3,42.2,212.6,42.2L212.6,42.2z"/>
		<path d="M226.1,43.6c-1-0.1-1.9-0.3-2.9-0.4c-0.2,0-0.3-0.1-0.3-0.3l2.9-21.6c0-0.2,0.1-0.2,0.2-0.2c0,0,0.1,0,0.1,0
			c1,0.2,2.1,0.3,3.1,0.5c0.3,0,0.3,0.2,0.3,0.3l-3.1,21.5C226.3,43.6,226.2,43.6,226.1,43.6C226.1,43.6,226.1,43.6,226.1,43.6z"/>
		<path d="M241.4,46.7c-0.6,0-1.3-0.1-1.9-0.2c-3.3-0.6-5.6-2.2-7-4.8c-1.4-2.4-1.8-5.3-1.3-8.7c0.5-3.2,1.8-5.8,4-7.5
			c1.7-1.4,3.7-2.1,5.9-2.1c0.7,0,1.5,0.1,2.3,0.2c2.3,0.5,4.2,1.4,5.5,2.9c1.1,1.2,1.5,2.3,1.3,3.2c-0.2,0.8-0.5,1.1-1.3,1.1
			c-0.2,0-0.4,0-0.6-0.1c-0.7-0.1-1.1-0.6-1.4-1.5c-0.7-2.2-2.1-3.5-4-3.8c-0.4-0.1-0.8-0.1-1.2-0.1c-1.4,0-2.7,0.5-3.8,1.6
			c-1.4,1.4-2.4,3.4-2.8,6.1c-0.5,2.9-0.2,5.4,0.8,7.5c1,2.1,2.6,3.4,4.7,3.9c0.4,0.1,0.9,0.1,1.3,0.1c1.3,0,2.7-0.4,4.1-1.2
			c0.2-0.1,0.4-0.2,0.6-0.2c0.1,0,0.1,0,0.2,0c0.5,0.1,0.6,0.4,0.5,0.9c-0.1,0.7-1,1.4-2.4,2C243.8,46.4,242.6,46.7,241.4,46.7
			L241.4,46.7z"/>
		<path d="M260.6,50.8c-0.1,0-0.1,0-0.2,0c-3.7-1-7.4-1.9-11.2-2.7c-0.2,0-0.3-0.1-0.2-0.3l4.4-21.3c0-0.2,0.1-0.2,0.2-0.2
			c0,0,0.1,0,0.1,0c4,0.9,7.9,1.9,11.8,2.9c0.3,0.1,0.3,0.2,0.3,0.3l-0.3,1.4c-0.1,0.2-0.2,0.2-0.2,0.2c-0.1,0-0.1,0-0.2,0
			c-2.8-0.7-5.5-1.4-8.2-2l-0.3-0.1l-1.7,7.5l0.3,0.1c2.3,0.5,4.5,1.1,6.8,1.7c0.2,0.1,0.3,0.2,0.2,0.3L262,40
			c-0.1,0.2-0.1,0.2-0.2,0.2c0,0-0.1,0-0.1,0c-2.3-0.6-4.5-1.1-6.7-1.7l-0.3-0.1l-1.8,8.3l0.3,0.1c2.6,0.6,5.3,1.3,7.8,1.9
			c0.3,0.1,0.3,0.2,0.2,0.3c-0.1,0.5-0.2,1-0.4,1.5C260.8,50.8,260.7,50.8,260.6,50.8L260.6,50.8z"/>
		<path class="st2" d="M304.6,162.3c1.4-2,2.6-4,3.4-6c1.3-3.2,2.2-9.1,3-14.7c0.3-1.9,0.5-3.7,0.8-5.4c0.2-1.4,1-2.9,4.7-2.9
			c1.3,0,2.7,0.2,3.7,0.3c0.3,0.1,0.7,0.1,0.9,0.1c0.6,0.1,1.5,0.3,2.5,0.5c2.3,0.5,5.2,1.2,8.1,1.2c1.8,0,3.5-0.3,4.9-0.8
			c0.1,0,0.2-0.1,0.3-0.1c0.9-0.3,3.8-2.3,4.4-11.2l0,0c0,0-0.3,7.6-5.4,9.4c-5.1,1.9-11.7-0.7-14.6-1c-2.9-0.3-10.6-2.1-11.6,4.2
			c-1,6.2-1.9,15.7-3.7,19.7c-2.6,5.8-7.7,14.9-16.8,18.7C294.4,173.7,298.9,170.2,304.6,162.3z"/>
		<path class="st2" d="M85.9,49.3c-0.1,0-0.1,0-0.2-0.2l-5-21.1c0-0.2,0-0.3,0.2-0.3c3.8-1,7.7-1.9,11.6-2.8c0.1,0,0.1,0,0.1,0
			c0.1,0,0.2,0,0.2,0.2l0.3,1.5c0.1,0.2,0,0.3-0.2,0.4c-2.7,0.6-5.3,1.2-8,1.9l-0.3,0.1l1.7,7.5l0.3-0.1c2.2-0.5,4.3-1,6.5-1.5
			c0.1,0,0.1,0,0.2,0c0.1,0,0.2,0,0.2,0.2l0.3,1.4c0,0.2,0,0.3-0.2,0.4c-2.2,0.5-4.4,1-6.5,1.5l-0.3,0.1l2.3,10c0,0.2,0,0.3-0.2,0.3
			c-1,0.2-1.9,0.5-2.9,0.7C85.9,49.3,85.9,49.3,85.9,49.3z"/>
		<path class="st2" d="M99.9,46c-0.1,0-0.1,0-0.2-0.2c-1.4-7-2.8-13.9-4.1-20.9c0-0.1-0.1-0.3,0.3-0.5c1.1-0.6,3.1-1.2,5.8-1.7
			c1.2-0.2,2.3-0.4,3.3-0.4c3.7,0,5.9,1.7,6.4,4.9c0.2,1.4-0.1,2.8-1.1,4c-0.8,1.1-1.9,1.9-3.2,2.5l-0.2,0.1l0,0.2l0,0.1l0,0.2
			l0.2,0c1,0.3,2,1,2.9,2.2c1.5,2,3,4,4.5,6c0.2,0.3,0.2,0.4,0.2,0.4c0,0.2,0,0.3-0.2,0.3c-1,0.2-2,0.3-3,0.5c-0.1,0-0.1,0-0.2,0
			c-0.2,0-0.4-0.1-0.5-0.2c-1.5-2.1-3-4.2-4.5-6.2c-1-1.4-2.1-2.1-3.1-2c-0.2,0-0.3,0-0.5,0l-1.6,0.3l1.8,9.5c0,0.2,0,0.3-0.2,0.3
			c-0.9,0.2-1.9,0.4-2.8,0.6C99.9,46,99.9,46.1,99.9,46z M103.5,24.2c-0.5,0-0.9,0.1-1.5,0.2c-1,0.2-1.9,0.4-2.5,0.7l-0.2,0.1
			l1.7,9.2l0.3,0c0.5-0.1,1.1-0.2,1.8-0.3c1.7-0.3,3-1,3.9-2c0.8-1,1.1-2.3,0.9-3.7C107.4,25.6,105.9,24.2,103.5,24.2z"/>
		<path class="st2" d="M123.5,42.2c-1.6,0-2.9-0.3-4.1-1c-1.7-1-2.8-2.6-3.1-4.9L114,21c0-0.1,0-0.3,0.3-0.3c1-0.2,2-0.3,3.1-0.5
			c0,0,0.1,0,0.1,0c0.1,0,0.2,0,0.2,0.2l2.1,15.2c0.2,1.4,0.8,2.5,1.8,3.2c0.8,0.6,1.7,0.8,2.8,0.8c0.3,0,0.6,0,0.9-0.1
			c1.4-0.2,2.5-0.8,3.3-1.7c0.8-0.9,1.1-2.2,0.9-3.6l-1.7-15.2c0-0.2,0-0.3,0.3-0.3c0.9-0.1,1.7-0.2,2.6-0.3c0,0,0,0,0,0
			c0.2,0,0.3,0,0.3,0.2l1.6,15.4c0.2,2.3-0.4,4.1-1.8,5.6c-1.3,1.3-3.1,2.1-5.5,2.4C124.7,42.2,124.1,42.2,123.5,42.2L123.5,42.2z"
			/>
		<path class="st2" d="M137.2,40.2c-0.1,0-0.2,0-0.2-0.2l-2-21.7c0-0.2,0-0.3,0.3-0.3c1-0.1,2-0.2,3.1-0.3l0,0
			c0.2,0,0.3,0.1,0.3,0.2l1.8,21.7c0,0.2,0,0.3-0.3,0.3C139.2,40,138.2,40.1,137.2,40.2L137.2,40.2z"/>
		<path class="st2" d="M148.5,39.3c-0.1,0-0.3,0-0.3-0.3l-1.3-19.8l-0.3,0c-1.8,0.1-3.5,0.3-5.3,0.4l0,0c-0.2,0-0.3,0-0.3-0.3
			l-0.1-1.5c0-0.2,0-0.3,0.3-0.3c5-0.4,10-0.7,14.9-1l0,0c0.3,0,0.3,0.1,0.3,0.3l0.1,1.5c0,0.2,0,0.3-0.3,0.3
			c-1.8,0.1-3.5,0.2-5.3,0.3l-0.3,0l1.1,19.9c0,0.3-0.1,0.3-0.3,0.3C150.4,39.2,149.5,39.2,148.5,39.3L148.5,39.3z"/>
		<path class="st2" d="M171,38.9c-1.5,0-2.7-0.4-3.7-1.3c-1-0.9-1.5-1.9-1.5-3.2c0-1.4,0.5-2.7,1.5-3.8c0.7-0.8,2-1.7,3.6-2.6
			l0.3-0.2l-0.2-0.3c-1.7-1.9-2.6-3.5-2.6-4.8c0-1.3,0.5-2.4,1.6-3.2c1.1-0.8,2.5-1.2,4.2-1.2c1.8,0,3.2,0.4,4.1,1.1
			c0.9,0.7,1.4,1.6,1.4,2.8c0,1.1-0.5,2.1-1.6,3c-0.6,0.6-1.8,1.3-3.5,2.3l-0.3,0.2l0.2,0.3c1.1,1.2,2.2,2.4,3.3,3.6l0.2,0.2
			l0.2-0.3c1.8-2.2,3.4-3.4,5-3.4l0.1,0c0.6,0,1.1,0.2,1.3,0.4c0.2,0.2,0.2,0.4,0.2,0.8c0,0.8-0.4,1.1-1.2,1.1c0,0-0.3,0-0.5,0
			c-0.8,0-1.5,0.1-2,0.3c-0.7,0.3-1.5,0.9-2.3,1.8l-0.2,0.2l0.2,0.2c1.6,1.8,3.2,3.6,4.7,5.3c0,0,0.1,0.1,0.1,0.2
			c0,0.2,0,0.2-0.2,0.2c-0.8,0-1.6,0-2.4-0.1c-0.2,0-0.4-0.2-0.6-0.4c-0.9-1.1-1.9-2.2-2.9-3.2l-0.2-0.3l-0.2,0.3
			c-0.9,1.3-1.8,2.2-2.5,2.7C173.6,38.5,172.4,38.9,171,38.9L171,38.9z M171.9,29c-2.4,1.4-3.6,3-3.6,4.6c0,1,0.3,1.8,1,2.4
			c0.6,0.6,1.5,0.9,2.5,0.9c1.4,0,2.8-1,4.4-3.1l0.1-0.2l-0.2-0.2c-1.3-1.5-2.7-2.9-4-4.4l-0.2-0.2L171.9,29z M173.9,19.4
			c-0.9,0-1.7,0.3-2.3,0.8c-0.6,0.6-0.9,1.3-0.9,2.2c0,1.2,0.8,2.5,2.4,4.2l0.2,0.2l0.2-0.1c2.6-1.4,3.9-2.7,3.9-4.1
			c0-0.9-0.3-1.7-0.9-2.2C175.8,19.7,175,19.4,173.9,19.4L173.9,19.4z"/>
		<path class="st2" d="M190.3,46.7c-1.2-0.1-1.2-0.6-1.2-0.8c0-0.3,0.3-0.5,0.8-0.6c3.1-1,4.8-4,5.1-8.7l1.2-19.3
			c0-0.2,0.1-0.2,0.3-0.2c1.1,0.1,2.1,0.1,3.2,0.2c0.3,0,0.3,0.1,0.3,0.3l-1.3,18.6c-0.3,3.8-1.5,6.7-3.7,8.5c-1.5,1.3-2.9,2-4.3,2
			C190.5,46.7,190.4,46.7,190.3,46.7z"/>
		<path class="st2" d="M211.6,41.2c-0.5,0-1,0-1.5-0.1c-2.4-0.3-4.2-1-5.5-2.3c-1.5-1.4-2.1-3.2-1.9-5.5l1.2-15.4
			c0-0.2,0.1-0.2,0.3-0.2c1.1,0.1,2.1,0.2,3.2,0.3c0.3,0,0.3,0.1,0.3,0.3l-1.4,15.2c-0.1,1.4,0.2,2.7,1,3.6c0.8,0.9,1.9,1.5,3.3,1.6
			c0.3,0,0.5,0,0.7,0c1.1,0,2-0.3,2.8-0.9c1-0.7,1.5-1.8,1.7-3.3l1.8-15.2c0-0.2,0.1-0.2,0.2-0.2c0,0,0.1,0,0.1,0
			c0.9,0.1,1.7,0.2,2.6,0.3c0.2,0,0.3,0.1,0.3,0.3l-1.9,15.4c-0.3,2.3-1.3,3.9-3,5C214.7,40.8,213.3,41.2,211.6,41.2L211.6,41.2z"/>
		<path class="st2" d="M225,42.6c-1-0.1-1.9-0.3-2.9-0.4c-0.3,0-0.3-0.1-0.3-0.3l2.9-21.6c0-0.2,0.1-0.2,0.2-0.2c0,0,0.1,0,0.1,0
			c1,0.2,2,0.3,3.1,0.5c0.3,0,0.3,0.2,0.3,0.3l-3.1,21.5c0,0.2-0.1,0.2-0.2,0.2C225.1,42.6,225.1,42.6,225,42.6z"/>
		<path class="st2" d="M240.4,45.6c-0.6,0-1.3-0.1-1.9-0.2c-3.3-0.6-5.6-2.2-7-4.8c-1.4-2.4-1.8-5.3-1.3-8.7c0.5-3.2,1.8-5.8,4-7.5
			c1.7-1.4,3.7-2.1,5.9-2.1c0.7,0,1.5,0.1,2.3,0.2c2.3,0.5,4.2,1.4,5.5,2.9c1,1.2,1.5,2.3,1.3,3.2c-0.2,0.8-0.6,1.1-1.3,1.1
			c-0.2,0-0.4,0-0.6-0.1c-0.7-0.1-1.1-0.6-1.4-1.5c-0.7-2.2-2-3.4-4.1-3.8c-0.4-0.1-0.8-0.1-1.2-0.1c-1.4,0-2.7,0.5-3.8,1.6
			c-1.4,1.4-2.4,3.4-2.8,6.1c-0.5,2.9-0.2,5.4,0.8,7.5c1,2.1,2.6,3.4,4.7,3.8c0.4,0.1,0.9,0.1,1.3,0.1c1.3,0,2.7-0.4,4.1-1.2
			c0.2-0.1,0.4-0.2,0.6-0.2c0.1,0,0.1,0,0.2,0c0.5,0.1,0.6,0.4,0.5,0.9c-0.2,0.7-1,1.4-2.4,2C242.8,45.4,241.6,45.6,240.4,45.6
			L240.4,45.6z"/>
		<path class="st2" d="M259.6,49.8c0,0-0.1,0-0.2,0c-3.7-1-7.4-1.9-11.2-2.7c-0.2-0.1-0.3-0.1-0.2-0.3l4.4-21.3
			c0-0.2,0.1-0.2,0.2-0.2c0,0,0.1,0,0.1,0c3.9,0.9,7.9,1.9,11.8,2.9c0.3,0.1,0.3,0.2,0.3,0.3l-0.3,1.4c-0.1,0.2-0.2,0.2-0.2,0.2
			c0,0-0.1,0-0.2,0c-2.8-0.7-5.5-1.4-8.1-2l-0.3-0.1l-1.6,7.5l0.3,0.1c2.3,0.5,4.5,1.1,6.8,1.7c0.2,0.1,0.3,0.2,0.2,0.3L261,39
			c-0.1,0.2-0.1,0.2-0.2,0.2c0,0-0.1,0-0.1,0c-2.2-0.6-4.5-1.1-6.7-1.7l-0.3-0.1l-1.8,8.3l0.3,0.1c2.6,0.6,5.3,1.3,7.8,1.9
			c0.3,0.1,0.3,0.2,0.2,0.3c-0.1,0.5-0.2,1-0.4,1.5C259.7,49.8,259.7,49.8,259.6,49.8L259.6,49.8z"/>
	</g>
	<g>
		<path d="M350.5,64.3l1.9-8l-3-0.7l0.3-1.1l7.2,1.7l-0.3,1.1l-3-0.7l-1.9,8L350.5,64.3z"/>
		<path d="M355.5,65.4l2.1-9l1.8,0.4l0.6,6.9c0.1,0.6,0.1,1.1,0.1,1.4c0.2-0.3,0.5-0.8,0.8-1.3l3.7-5.8l1.6,0.4l-2.1,9l-1.2-0.3
			l1.8-7.6l-4.4,6.9l-1.1-0.3l-0.8-8.3l-1.8,7.7L355.5,65.4z"/>
	</g>
</g>
</svg>
