<svg version="1.1" id="DESIGN" xmlns="http://www.w3.org/2000/svg" x="0" y="0" viewBox="0 0 366.3 193.8" xml:space="preserve"><style>.st2{fill:#fff}</style><linearGradient id="SVGID_1_" gradientUnits="userSpaceOnUse" x1="66.922" y1="-311.901" x2="342.102" y2="-126.29" gradientTransform="translate(-40.517 317.105) scale(.9999)"><stop offset="0" stop-color="#fff"/><stop offset="0" stop-color="#bfbfbf"/><stop offset="0" stop-color="#858585"/><stop offset=".061" stop-color="#bababa"/><stop offset=".103" stop-color="#fff"/><stop offset=".198" stop-color="#f0f0f0"/><stop offset=".242" stop-color="#c8c8c8"/><stop offset=".339" stop-color="#666"/><stop offset=".473" stop-color="#696969"/><stop offset=".622" stop-color="#dedede"/><stop offset=".661" stop-color="#f2f2f2"/><stop offset=".759" stop-color="#d9d9d9"/><stop offset=".865" stop-color="#646464"/><stop offset=".905" stop-color="#f2f2f2"/><stop offset=".936" stop-color="#dcdcdc"/><stop offset="1" stop-color="#545454"/></linearGradient><path d="M346.7 43.4c-5.7-2.7-42.6-18.3-71.5-27.3-32-10-60.6-14.8-89.4-15.8 0 0-8.2-.3-12.5-.3-4.3 0-12.5.3-12.5.3-28.8 1.1-57.4 5.8-89.3 15.9C42.5 25.3 4.8 41.7 0 44.1c1 12.1 8 121.6 8 121.6s-.6 8.8 9.5 8.8 66.3-.1 66.3-.1v7.8c0 4.5 3 11.6 12.9 11.6h153.5c9.8 0 12.8-6.7 12.8-11.6v-7.8s10.6-.2 23.4 0c8.2.1 10.6-2.3 14.5-5.5 8.3-7 23.8-20.1 23.8-20.1s9.5-8.3 13.4-12.5c2-2.1 2.9-6.5 3-8.6 2.1-33.3 5-76.9 5.6-84.3z" fill="url(#SVGID_1_)"/><linearGradient id="SVGID_2_" gradientUnits="userSpaceOnUse" x1="-106.915" y1="124.15" x2="242.095" y2="124.15" gradientTransform="rotate(15.13 204.377 488.608)"><stop offset=".024" stop-color="#006e35"/><stop offset=".309" stop-color="#002e0f"/><stop offset=".721" stop-color="#006e35"/><stop offset="1" stop-color="#002e0f"/></linearGradient><path d="M346.2 49.5c-3.9-2.9-42.1-21.3-71-30.4-32-10-60.6-14.8-89.3-15.8 0 0-8.1-.3-12.5-.3s-12.5.3-12.5.3c-28.8 1.1-57.4 5.8-89.3 15.9-28.9 9.1-67 27.5-71 30.5 1 12.1 7.6 113 7.6 113s-.3 8.8 9.5 8.8c10.1 0 70.3-.1 70.3-.1v9.8s0 7.5 9.8 7.5h151.4c9.8 0 9.8-7.5 9.8-7.5v-9.8h35.5c5.2-3 9.3-7 14.1-11 10.4-10.1 19.4-17 19.4-17s8.7-6.4 13.1-15.4c1.9-30.6 4.5-71.1 5.1-78.5z" fill="url(#SVGID_2_)"/><path d="M41.4 56h23.1s4.2 2.4 4.2 7.4v47.8s.5 20.8-3.5 30.2c-3.3 7.8-8 12.7-15.5 15.1-8.8 2.8-17.2 2.2-21.1-1-4.4-3.6-4.8-10.3-4.8-10.3s3.9.9 8.6-.5c3.4-1 8-4.1 10.8-12.4 2.9-8.3 2.3-15.8 2.2-20.8v-43s.3-5.4-.6-7.4c-.8-1.9-3.4-5.1-3.4-5.1zm160 4.3c.3-.1 1.2 14.5-4.3 16.8h-25.2v20.6h13.5s9.6-.2 13-1.7c-.7 6.4-1.8 9.7-4.1 11.7s-6.1 3.6-9.7 3.7h-12.8v21.8s.3 9.3 2.1 12.6h-18.2s-5.6.3-5.6-5.3V69s-1.2-8 6.8-8h36.4s5.7-.2 8.1-.7zm56.1-.1c.3-.1 1.2 14.5-4.3 16.8H228v20.6h13.5s9.6-.2 13-1.7c-.8 6.4-1.8 9.7-4.1 11.7s-6.1 3.6-9.7 3.6h-12.8v21.9s.3 9.3 2.1 12.6h-18.2s-5.6.3-5.6-5.3V68.9s-1.2-8 6.8-8h36.4s5.7-.1 8.1-.7zm-139.6 5.6c-.6-2.7-2.7-3.9-2.7-3.9H94.8s.9.8 2.4 2.6c1.7 2.1-.1 6-.1 6S92.3 83.2 89 92.7 76.2 126.3 73.8 136c-2.4 9.7 3.8 10.1 3.8 10.1s2.2.1 15.1-.1c-4.5-4.5 1.1-22.1 1.1-22.1h22s1.1 5.3 4.5 13.7c3.5 8.4 9.5 8.7 12.8 8.9 3.3.1 6 .1 12.7-1.5-8.1-10.5-27.3-76.5-27.9-79.2zm-20.4 45.7s4.3-14.1 8-25.1c1.5 7.8 6.5 25.1 6.5 25.1H97.5zm199.4-51c-.6-2.9-2.8-4.2-2.8-4.2h-20.8s1 .8 2.5 2.7c1.8 2.2-.1 6.4-.1 6.4s-4.9 13.5-8.3 23.6c-3.4 10.1-13 35.8-15.5 46.1-2.5 10.3 3.9 10.7 3.9 10.7s2.3.1 15.4-.1c-4.6-4.8 1.2-23.5 1.2-23.5h22.5s1.1 5.6 4.6 14.6c3.5 9 9.7 9.3 13.1 9.5 3.4.2 6.2.2 12.9-1.6-8.4-11.1-28-81.3-28.6-84.2zm-20.8 48.6s4.3-15 8.2-26.8c1.6 8.3 6.7 26.7 6.7 26.7l-14.9.1z"/><path class="st2" d="M39.4 54.6h23.1s4.2 2.4 4.2 7.4v47.8s.5 20.7-3.4 30.1c-3.3 7.8-8 12.7-15.5 15.1-8.8 2.8-17.2 2.2-21.1-1-4.4-3.6-4.8-10.2-4.8-10.2s3.9.9 8.6-.5c3.4-1 8-4.1 10.8-12.4 2.9-8.3 2.3-15.8 2.2-20.8v-43s.3-5.4-.6-7.4c-.9-1.9-3.5-5.1-3.5-5.1zm160 4.3c.3-.1 1.2 14.5-4.3 16.8h-25.2v20.6h13.5s9.6-.2 13.1-1.7c-.8 6.4-1.8 9.7-4.1 11.7s-6.1 3.6-9.7 3.6H170v21.8s.3 9.3 2.1 12.6h-18.2s-5.6.3-5.6-5.3V67.5s-1.2-8 6.8-8h36.4s5.6 0 7.9-.6zm56.1 0c.3-.1 1.2 14.5-4.3 16.8H226v20.6h13.5s9.6-.2 13-1.7c-.8 6.4-1.8 9.7-4.1 11.7s-6.1 3.6-9.7 3.6H226v21.9s.3 9.3 2.1 12.6h-18.2s-5.6.3-5.6-5.3-.1-71.5-.1-71.5-1.2-8 6.8-8h36.4s5.7-.2 8.1-.7zm-139.6 5.5c-.6-2.7-2.7-3.9-2.7-3.9H92.9s.9.8 2.4 2.6c1.7 2.1-.2 6-.2 6S90.3 81.8 87 91.3s-12.8 33.6-15.2 43.3c-2.4 9.7 3.8 10.1 3.8 10.1s2.2.1 15.1 0c-4.5-4.5 1.1-22.1 1.1-22.1h22s1.1 5.3 4.5 13.7c3.5 8.4 9.5 8.7 12.8 8.9 3.3.1 6 .2 12.7-1.5-8.1-10.6-27.3-76.6-27.9-79.3zm-20.4 45.7s4.3-14.1 8-25.1c1.5 7.8 6.5 25.1 6.5 25.1H95.5zm199.4-51c-.6-2.9-2.8-4.2-2.8-4.2h-20.8s1 .8 2.5 2.7c1.8 2.2-.1 6.4-.1 6.4s-4.9 13.5-8.3 23.6c-3.4 10.1-13.1 35.8-15.5 46.1-2.5 10.3 3.9 10.7 3.9 10.7s2.3.1 15.4-.1c-4.6-4.8 1.2-23.5 1.2-23.5h22.5s1.1 5.6 4.6 14.6c3.6 9 9.7 9.3 13.1 9.5 3.4.2 6.2.2 12.9-1.6-8.4-11.1-28-81.3-28.6-84.2zm-20.7 48.7s4.3-15 8.2-26.7c1.6 8.3 6.7 26.7 6.7 26.7h-14.9z"/><path d="M131.2 181.9c-2.6-.8-4.8-1.6-7.1-2.6-.4-.2-.8-.3-1.2-.3-4.2-.2-8-3.6-8-10.1 0-6.2 3.5-10.5 8.7-10.5 5.3 0 8.4 4.4 8.5 10.1 0 4.8-2 8-4.7 9.2v.1c1.6.5 3.3.9 4.8 1.2l-1 2.9zm-2.7-13.2c0-3.8-1.7-7.3-5-7.3s-5.1 3.5-5.1 7.4c0 4 1.9 7.3 5.1 7.3 3.1 0 5-3.2 5-7.4zm11.9-8v10.5c0 3.5 1.3 5.2 3.4 5.2 2.2 0 3.5-1.6 3.5-5.2v-10.5h3V171c0 5.6-2.6 8-6.6 8-3.8 0-6.3-2.3-6.3-8v-10.3h3zm19.2 12.9l-1.4 5.1h-3.1l5.3-18h3.9l5.4 18h-3.3l-1.5-5.1h-5.3zm4.7-2.5l-1.3-4.4c-.3-1.1-.6-2.3-.8-3.4h-.1c-.2 1-.5 2.3-.8 3.4l-1.3 4.4h4.3zm10-10.4h3V176h6.8v2.8h-9.8v-18.1zm17.6 0v18h-3v-18h3zm9.1 2.7h-4.7v-2.8h12.5v2.7H204v15.3h-3v-15.2zm16.6 15.3v-8.3l-5.8-11.6h3.8l2.2 5.1c.6 1.5 1.1 2.6 1.6 4h.1c.4-1.3.9-2.5 1.6-4l2.2-5.1h3.8l-6.1 11.5v8.4h-3.4z"/><path class="st2" d="M130.2 180.9c-2.6-.8-4.8-1.6-7.1-2.6-.4-.2-.8-.3-1.2-.3-4.2-.2-8-3.6-8-10.1 0-6.2 3.5-10.5 8.7-10.5 5.3 0 8.5 4.4 8.5 10.1 0 4.8-2 8-4.7 9.2v.1c1.6.5 3.3.9 4.8 1.2l-1 2.9zm-2.7-13.2c0-3.8-1.7-7.3-5-7.3s-5.1 3.5-5.1 7.4c0 4 1.9 7.3 5.1 7.3 3.1 0 5-3.2 5-7.4zm11.9-8v10.5c0 3.5 1.4 5.2 3.4 5.2 2.2 0 3.5-1.6 3.5-5.2v-10.5h3V170c0 5.6-2.6 8-6.6 8-3.8 0-6.3-2.3-6.3-8v-10.3h3zm19.1 12.9l-1.4 5.1H154l5.3-18h3.9l5.4 18h-3.3l-1.5-5.1h-5.3zm4.8-2.5l-1.3-4.4c-.3-1.1-.6-2.3-.8-3.4-.2 1-.5 2.3-.8 3.4l-1.3 4.4h4.2zm10-10.4h3V175h6.8v2.7h-9.8v-18zm17.6 0v18h-3v-18h3zm9.1 2.7h-4.7v-2.8h12.5v2.8H203v15.3h-3v-15.3zm16.5 15.3v-8.3l-5.8-11.6h3.8l2.2 5.1c.6 1.5 1.1 2.6 1.6 3.9h.1c.4-1.3.9-2.5 1.6-4l2.2-5.1h3.8l-6.1 11.5v8.4l-3.4.1z"/><linearGradient id="SVGID_3_" gradientUnits="userSpaceOnUse" x1="345.952" y1="-178.983" x2="359.303" y2="-163.072" gradientTransform="translate(-40.517 317.105) scale(.9999)"><stop offset="0" stop-color="#fff"/><stop offset=".325" stop-color="#ebebeb"/><stop offset=".473" stop-color="#e8e8e8"/><stop offset=".909" stop-color="#ababab"/><stop offset="1" stop-color="#a6a6a6"/></linearGradient><path d="M289.3 174.3c2.1-.3 2.9-.6 5.3-1.8 6.2-3.1 9.3-11.3 11.6-16.9 1.7-4 2.6-13.5 3.7-19.7 1-6.2 8.7-4.5 11.6-4.2 2.9.3 9.5 2.9 14.6 1 5-1.8 5.4-9.4 5.4-9.4s.8 9.5-4.2 14.1c-11.5 10.6-21.4 18.6-35.9 31-4.9 4.1-8.2 5.8-12.1 5.9-4.2-.1 0 0 0 0z" fill="url(#SVGID_3_)"/><path class="st2" d="M271 41.5c0 1.3-1 2.3-2.3 2.3-1.3 0-2.3-1-2.3-2.3 0-1.3 1-2.3 2.3-2.3 1.3.1 2.3 1.1 2.3 2.3zm-192.8.2c0 1.3-1 2.3-2.3 2.3-1.3 0-2.3-1-2.3-2.3 0-1.2 1-2.3 2.3-2.3 1.3 0 2.3 1 2.3 2.3z"/><path d="M86.9 50.4c-.1 0-.1 0-.2-.2l-5-21.1c0-.2 0-.3.2-.3 3.8-1 7.8-1.9 11.6-2.8h.1c.1 0 .2 0 .2.2l.3 1.5c0 .2 0 .3-.2.4-2.7.6-5.3 1.2-8 1.9l-.3.1 1.7 7.5.3-.1c2.2-.5 4.4-1 6.5-1.5h.1c.1 0 .2 0 .2.2l.3 1.4c0 .2 0 .3-.3.4-2.2.5-4.3 1-6.5 1.5l-.3.1 2.3 10c0 .2 0 .3-.2.3-1 .2-1.9.5-2.9.7.2-.3.1-.2.1-.2zm14-3.3c-.1 0-.2 0-.2-.2-1.4-7-2.7-13.9-4.1-20.9 0-.1-.1-.3.3-.5 1.1-.6 3.1-1.2 5.8-1.7 1.2-.2 2.3-.4 3.3-.4 3.7 0 5.9 1.7 6.4 4.9.2 1.4-.1 2.8-1.1 4-.8 1-1.9 1.9-3.2 2.5l-.2.1v.5h.2c1 .3 2 1 2.9 2.2l4.5 6c.2.3.2.4.2.4 0 .2 0 .3-.2.3-1 .2-2 .3-3 .5h-.2c-.2 0-.4-.1-.5-.2-1.5-2.1-3-4.2-4.5-6.2-1-1.4-2.1-2-3.1-2h-.5l-1.6.3 1.8 9.5c0 .2 0 .3-.2.3-.9.2-1.9.4-2.8.6zm3.6-21.9c-.5 0-1 .1-1.5.1-1 .2-1.9.4-2.5.7l-.2.1 1.7 9.2h.3c.5-.1 1.1-.1 1.8-.3 1.8-.3 3.1-1 3.9-2 .8-1 1.2-2.3.9-3.7-.5-2.7-2-4.1-4.4-4.1zm20 18c-1.6 0-2.9-.3-4.1-1-1.7-1-2.8-2.6-3.1-4.9L115 22.1c0-.1 0-.3.3-.3 1-.2 2-.3 3.1-.5h.1c.1 0 .2 0 .2.2l2.1 15.2c.2 1.4.8 2.5 1.8 3.2.8.6 1.7.8 2.8.8.3 0 .6 0 .9-.1 1.4-.2 2.5-.8 3.3-1.7.8-1 1.1-2.2.9-3.6l-1.7-15.2c0-.1 0-.2.3-.3.9-.1 1.7-.2 2.5-.3h.1c.2 0 .3 0 .3.2l1.6 15.4c.2 2.3-.4 4.1-1.8 5.6-1.3 1.3-3.1 2.1-5.5 2.4-.6.1-1.2.1-1.8.1zm13.7-2c-.2 0-.2 0-.2-.2l-2-21.7c0-.2 0-.3.3-.3 1-.1 2.1-.2 3.1-.3.2 0 .3 0 .3.2l1.8 21.7c0 .2 0 .3-.3.3-1 .1-1.9.2-3 .3zm11.3-.9c-.1 0-.3 0-.3-.3l-1.3-19.8h-.3c-1.8.1-3.5.3-5.3.4-.2 0-.3 0-.3-.3l-.1-1.5c0-.2 0-.3.3-.3 5-.4 10-.7 14.9-.9.3 0 .3.1.3.2l.1 1.5c0 .2-.1.3-.3.3-1.8.1-3.5.2-5.3.3h-.3l1.1 19.9c0 .3-.1.3-.3.4-.9 0-1.9 0-2.9.1zm22.5-.4c-1.4 0-2.7-.4-3.7-1.3s-1.5-1.9-1.5-3.2c0-1.4.5-2.7 1.5-3.8.8-.8 2-1.7 3.6-2.6l.3-.2-.2-.3c-1.7-1.9-2.6-3.5-2.6-4.8 0-1.3.5-2.4 1.6-3.2 1.1-.8 2.5-1.2 4.2-1.2 1.8 0 3.2.4 4.1 1.1.9.7 1.4 1.7 1.4 2.8 0 1.1-.5 2.1-1.5 3-.7.6-1.8 1.3-3.5 2.3l-.3.2.3.3 3.3 3.6.2.3.2-.3c1.8-2.3 3.4-3.4 5-3.4h.1c.6 0 1.1.2 1.3.4.2.2.2.4.2.8 0 .7-.4 1.1-1.2 1.1h-.4c-.8 0-1.5.1-2 .3-.7.3-1.5.9-2.3 1.8l-.1.2v.2c1.6 1.8 3.2 3.6 4.7 5.3 0 0 .1.1.1.2 0 .2 0 .2-.2.2-.8 0-1.6 0-2.4-.1-.2 0-.4-.1-.7-.4-.9-1.1-1.9-2.2-2.8-3.2l-.2-.3-.2.3c-.9 1.3-1.8 2.2-2.5 2.7-1.2.8-2.4 1.2-3.8 1.2zm.9-9.9c-2.4 1.4-3.6 3-3.6 4.6 0 1 .4 1.8 1 2.4.6.6 1.5.9 2.6.9 1.4 0 2.8-1 4.4-3.1l.1-.2-.2-.2c-1.3-1.5-2.7-2.9-4-4.4l-.2-.2-.1.2zm2.1-9.6c-.9 0-1.7.3-2.3.8-.6.6-.9 1.3-.9 2.2 0 1.2.8 2.5 2.4 4.2l.2.1.2-.1c2.6-1.4 3.9-2.7 3.9-4.1 0-.9-.3-1.6-.9-2.2-.8-.6-1.6-.9-2.6-.9zm16.3 27.3c-1.2-.1-1.2-.6-1.2-.8 0-.3.3-.5.8-.6 3.1-1 4.8-4 5.1-8.7l1.2-19.3c0-.2.1-.2.3-.2 1.1.1 2.1.1 3.2.2.3 0 .3.1.3.3l-1.3 18.6c-.3 3.8-1.5 6.7-3.7 8.6-1.5 1.3-2.9 1.9-4.3 1.9h-.4zm21.3-5.5c-.5 0-1 0-1.5-.1-2.4-.3-4.2-1-5.5-2.3-1.5-1.4-2.1-3.2-1.9-5.5l1.2-15.4c0-.2.1-.2.3-.2 1.1.1 2.1.2 3.2.3.3 0 .3.1.3.3l-1.4 15.2c-.1 1.5.2 2.7 1 3.6.8.9 1.9 1.5 3.3 1.6h.7c1.1 0 2-.3 2.8-.9 1-.7 1.6-1.8 1.7-3.3l1.8-15.2c0-.2.1-.2.3-.2h.1c.9.1 1.7.2 2.6.3.3 0 .3.1.3.3L220 36c-.3 2.3-1.3 3.9-3 5-1.3.8-2.7 1.2-4.4 1.2zm13.5 1.4c-1-.1-1.9-.3-2.9-.4-.2 0-.3-.1-.3-.3l2.9-21.6c0-.2.1-.2.2-.2h.1c1 .2 2.1.3 3.1.5.3 0 .3.2.3.3l-3.1 21.5c-.1.2-.2.2-.3.2zm15.3 3.1c-.6 0-1.3-.1-1.9-.2-3.3-.6-5.6-2.2-7-4.8-1.4-2.4-1.8-5.3-1.3-8.7.5-3.2 1.8-5.8 4-7.5 1.7-1.4 3.7-2.1 5.9-2.1.7 0 1.5.1 2.3.2 2.3.5 4.2 1.4 5.5 2.9 1.1 1.2 1.5 2.3 1.3 3.2-.2.8-.5 1.1-1.3 1.1-.2 0-.4 0-.6-.1-.7-.1-1.1-.6-1.4-1.5-.7-2.2-2.1-3.5-4-3.8-.4-.1-.8-.1-1.2-.1-1.4 0-2.7.5-3.8 1.6-1.4 1.4-2.4 3.4-2.8 6.1-.5 2.9-.2 5.4.8 7.5 1 2.1 2.6 3.4 4.7 3.9.4.1.9.1 1.3.1 1.3 0 2.7-.4 4.1-1.2.2-.1.4-.2.6-.2h.2c.5.1.6.4.5.9-.1.7-1 1.4-2.4 2-1.1.4-2.3.7-3.5.7zm19.2 4.1h-.2c-3.7-1-7.4-1.9-11.2-2.7-.2 0-.3-.1-.2-.3l4.4-21.3c0-.2.1-.2.2-.2h.1c4 .9 7.9 1.9 11.8 2.9.3.1.3.2.3.3l-.3 1.4c-.1.2-.2.2-.2.2h-.2c-2.8-.7-5.5-1.4-8.2-2l-.3-.1-1.7 7.5.3.1c2.3.5 4.5 1.1 6.8 1.7.2.1.3.2.2.3L262 40c-.1.2-.1.2-.2.2h-.1c-2.3-.6-4.5-1.1-6.7-1.7l-.3-.1-1.8 8.3.3.1c2.6.6 5.3 1.3 7.8 1.9.3.1.3.2.2.3-.1.5-.2 1-.4 1.5 0 .3-.1.3-.2.3z"/><path class="st2" d="M304.6 162.3c1.4-2 2.6-4 3.4-6 1.3-3.2 2.2-9.1 3-14.7.3-1.9.5-3.7.8-5.4.2-1.4 1-2.9 4.7-2.9 1.3 0 2.7.2 3.7.3.3.1.7.1.9.1.6.1 1.5.3 2.5.5 2.3.5 5.2 1.2 8.1 1.2 1.8 0 3.5-.3 4.9-.8.1 0 .2-.1.3-.1.9-.3 3.8-2.3 4.4-11.2 0 0-.3 7.6-5.4 9.4-5.1 1.9-11.7-.7-14.6-1-2.9-.3-10.6-2.1-11.6 4.2-1 6.2-1.9 15.7-3.7 19.7-2.6 5.8-7.7 14.9-16.8 18.7 5.2-.6 9.7-4.1 15.4-12zM85.9 49.3c-.1 0-.1 0-.2-.2l-5-21.1c0-.2 0-.3.2-.3 3.8-1 7.7-1.9 11.6-2.8h.1c.1 0 .2 0 .2.2l.3 1.5c.1.2 0 .3-.2.4-2.7.6-5.3 1.2-8 1.9l-.3.1 1.7 7.5.3-.1c2.2-.5 4.3-1 6.5-1.5h.2c.1 0 .2 0 .2.2l.3 1.4c0 .2 0 .3-.2.4-2.2.5-4.4 1-6.5 1.5l-.3.1 2.3 10c0 .2 0 .3-.2.3-1 .2-1.9.5-2.9.7l-.1-.2zm14-3.3c-.1 0-.1 0-.2-.2-1.4-7-2.8-13.9-4.1-20.9 0-.1-.1-.3.3-.5 1.1-.6 3.1-1.2 5.8-1.7 1.2-.2 2.3-.4 3.3-.4 3.7 0 5.9 1.7 6.4 4.9.2 1.4-.1 2.8-1.1 4-.8 1.1-1.9 1.9-3.2 2.5l-.2.1v.5h.2c1 .3 2 1 2.9 2.2l4.5 6c.2.3.2.4.2.4 0 .2 0 .3-.2.3-1 .2-2 .3-3 .5h-.2c-.2 0-.4-.1-.5-.2-1.5-2.1-3-4.2-4.5-6.2-1-1.4-2.1-2.1-3.1-2h-.5l-1.6.3 1.8 9.5c0 .2 0 .3-.2.3-.9.2-1.9.4-2.8.6 0 0 0 .1 0 0zm3.6-21.8c-.5 0-.9.1-1.5.2-1 .2-1.9.4-2.5.7l-.2.1 1.7 9.2h.3c.5-.1 1.1-.2 1.8-.3 1.7-.3 3-1 3.9-2 .8-1 1.1-2.3.9-3.7-.5-2.8-2-4.2-4.4-4.2zm20 18c-1.6 0-2.9-.3-4.1-1-1.7-1-2.8-2.6-3.1-4.9L114 21c0-.1 0-.3.3-.3 1-.2 2-.3 3.1-.5h.1c.1 0 .2 0 .2.2l2.1 15.2c.2 1.4.8 2.5 1.8 3.2.8.6 1.7.8 2.8.8.3 0 .6 0 .9-.1 1.4-.2 2.5-.8 3.3-1.7.8-.9 1.1-2.2.9-3.6L127.8 19c0-.2 0-.3.3-.3.9-.1 1.7-.2 2.6-.3.2 0 .3 0 .3.2l1.6 15.4c.2 2.3-.4 4.1-1.8 5.6-1.3 1.3-3.1 2.1-5.5 2.4-.6.2-1.2.2-1.8.2zm13.7-2c-.1 0-.2 0-.2-.2l-2-21.7c0-.2 0-.3.3-.3 1-.1 2-.2 3.1-.3.2 0 .3.1.3.2l1.8 21.7c0 .2 0 .3-.3.3l-3 .3zm11.3-.9c-.1 0-.3 0-.3-.3l-1.3-19.8h-.3c-1.8.1-3.5.3-5.3.4-.2 0-.3 0-.3-.3l-.1-1.5c0-.2 0-.3.3-.3 5-.4 10-.7 14.9-1 .3 0 .3.1.3.3l.1 1.5c0 .2 0 .3-.3.3-1.8.1-3.5.2-5.3.3h-.3l1.1 19.9c0 .3-.1.3-.3.3-1 .1-1.9.1-2.9.2zm22.5-.4c-1.5 0-2.7-.4-3.7-1.3s-1.5-1.9-1.5-3.2c0-1.4.5-2.7 1.5-3.8.7-.8 2-1.7 3.6-2.6l.3-.2-.2-.3c-1.7-1.9-2.6-3.5-2.6-4.8 0-1.3.5-2.4 1.6-3.2 1.1-.8 2.5-1.2 4.2-1.2 1.8 0 3.2.4 4.1 1.1.9.7 1.4 1.6 1.4 2.8 0 1.1-.5 2.1-1.6 3-.6.6-1.8 1.3-3.5 2.3l-.3.2.2.3 3.3 3.6.2.2.2-.3c1.8-2.2 3.4-3.4 5-3.4h.1c.6 0 1.1.2 1.3.4.2.2.2.4.2.8 0 .8-.4 1.1-1.2 1.1h-.5c-.8 0-1.5.1-2 .3-.7.3-1.5.9-2.3 1.8l-.2.2.2.2c1.6 1.8 3.2 3.6 4.7 5.3 0 0 .1.1.1.2 0 .2 0 .2-.2.2-.8 0-1.6 0-2.4-.1-.2 0-.4-.2-.6-.4-.9-1.1-1.9-2.2-2.9-3.2l-.2-.3-.2.3c-.9 1.3-1.8 2.2-2.5 2.7-1 .9-2.2 1.3-3.6 1.3zm.9-9.9c-2.4 1.4-3.6 3-3.6 4.6 0 1 .3 1.8 1 2.4.6.6 1.5.9 2.5.9 1.4 0 2.8-1 4.4-3.1l.1-.2-.2-.2c-1.3-1.5-2.7-2.9-4-4.4l-.2-.2v.2zm2-9.6c-.9 0-1.7.3-2.3.8-.6.6-.9 1.3-.9 2.2 0 1.2.8 2.5 2.4 4.2l.2.2.2-.1c2.6-1.4 3.9-2.7 3.9-4.1 0-.9-.3-1.7-.9-2.2-.7-.7-1.5-1-2.6-1zm16.4 27.3c-1.2-.1-1.2-.6-1.2-.8 0-.3.3-.5.8-.6 3.1-1 4.8-4 5.1-8.7l1.2-19.3c0-.2.1-.2.3-.2 1.1.1 2.1.1 3.2.2.3 0 .3.1.3.3l-1.3 18.6c-.3 3.8-1.5 6.7-3.7 8.5-1.5 1.3-2.9 2-4.3 2h-.4zm21.3-5.5c-.5 0-1 0-1.5-.1-2.4-.3-4.2-1-5.5-2.3-1.5-1.4-2.1-3.2-1.9-5.5l1.2-15.4c0-.2.1-.2.3-.2 1.1.1 2.1.2 3.2.3.3 0 .3.1.3.3l-1.4 15.2c-.1 1.4.2 2.7 1 3.6.8.9 1.9 1.5 3.3 1.6h.7c1.1 0 2-.3 2.8-.9 1-.7 1.5-1.8 1.7-3.3l1.8-15.2c0-.2.1-.2.2-.2h.1c.9.1 1.7.2 2.6.3.2 0 .3.1.3.3l-1.9 15.4c-.3 2.3-1.3 3.9-3 5-1.2.7-2.6 1.1-4.3 1.1zm13.4 1.4c-1-.1-1.9-.3-2.9-.4-.3 0-.3-.1-.3-.3l2.9-21.6c0-.2.1-.2.2-.2h.1c1 .2 2 .3 3.1.5.3 0 .3.2.3.3l-3.1 21.5c0 .2-.1.2-.2.2h-.1zm15.4 3c-.6 0-1.3-.1-1.9-.2-3.3-.6-5.6-2.2-7-4.8-1.4-2.4-1.8-5.3-1.3-8.7.5-3.2 1.8-5.8 4-7.5 1.7-1.4 3.7-2.1 5.9-2.1.7 0 1.5.1 2.3.2 2.3.5 4.2 1.4 5.5 2.9 1 1.2 1.5 2.3 1.3 3.2-.2.8-.6 1.1-1.3 1.1-.2 0-.4 0-.6-.1-.7-.1-1.1-.6-1.4-1.5-.7-2.2-2-3.4-4.1-3.8-.4-.1-.8-.1-1.2-.1-1.4 0-2.7.5-3.8 1.6-1.4 1.4-2.4 3.4-2.8 6.1-.5 2.9-.2 5.4.8 7.5 1 2.1 2.6 3.4 4.7 3.8.4.1.9.1 1.3.1 1.3 0 2.7-.4 4.1-1.2.2-.1.4-.2.6-.2h.2c.5.1.6.4.5.9-.2.7-1 1.4-2.4 2-1 .6-2.2.8-3.4.8zm19.2 4.2h-.2c-3.7-1-7.4-1.9-11.2-2.7-.2-.1-.3-.1-.2-.3l4.4-21.3c0-.2.1-.2.2-.2h.1c3.9.9 7.9 1.9 11.8 2.9.3.1.3.2.3.3l-.3 1.4c-.1.2-.2.2-.2.2h-.2c-2.8-.7-5.5-1.4-8.1-2l-.3-.1-1.6 7.5.3.1c2.3.5 4.5 1.1 6.8 1.7.2.1.3.2.2.3L261 39c-.1.2-.1.2-.2.2h-.1c-2.2-.6-4.5-1.1-6.7-1.7l-.3-.1-1.8 8.3.3.1c2.6.6 5.3 1.3 7.8 1.9.3.1.3.2.2.3-.1.5-.2 1-.4 1.5-.1.3-.1.3-.2.3z"/><path d="M350.5 64.3l1.9-8-3-.7.3-1.1 7.2 1.7-.3 1.1-3-.7-1.9 8-1.2-.3zm5 1.1l2.1-9 1.8.4.6 6.9c.1.6.1 1.1.1 1.4.2-.3.5-.8.8-1.3l3.7-5.8 1.6.4-2.1 9-1.2-.3 1.8-7.6-4.4 6.9-1.1-.3-.8-8.3-1.8 7.7-1.1-.1z"/></svg>